<svg width="27" height="23" viewBox="0 0 27 23" fill="none" xmlns="http://www.w3.org/2000/svg">
<path d="M23.5174 0C23.7046 0.0351038 23.7912 0.101812 23.9267 0.233445C23.9974 0.374979 23.9836 0.489795 23.9828 0.647969C23.9827 0.703809 23.9826 0.759649 23.9825 0.817181C23.9818 0.923968 23.9818 0.923968 23.981 1.03291C23.98 1.25875 23.9789 1.48458 23.9778 1.71726C24.7208 1.71726 25.4637 1.71726 26.2292 1.71726C26.2292 2.10561 26.2292 2.49396 26.2292 2.89407C26.0719 2.89354 25.9146 2.893 25.7525 2.89245C25.2336 2.89076 24.7146 2.88963 24.1957 2.88877C23.881 2.88824 23.5663 2.88751 23.2516 2.88635C22.948 2.88524 22.6445 2.88463 22.3409 2.88437C22.2249 2.88418 22.1089 2.88381 21.993 2.88325C21.8309 2.88251 21.6688 2.88241 21.5067 2.88246C21.4344 2.88191 21.4344 2.88191 21.3605 2.88134C21.2943 2.88155 21.2943 2.88155 21.2268 2.88177C21.1885 2.88167 21.1501 2.88158 21.1106 2.88148C20.9937 2.88855 20.9937 2.88855 20.8567 2.99641C20.7098 3.01759 20.7098 3.01759 20.5273 3.02838C20.4783 3.0313 20.4783 3.0313 20.4282 3.03427C19.9746 3.05795 19.52 3.05172 19.0659 3.04757C19.6339 4.18044 20.3407 4.79596 21.4707 5.35004C21.4375 5.60126 21.3659 5.83026 21.2802 6.06756C21.2667 6.10574 21.2531 6.14392 21.2392 6.18326C21.1961 6.30427 21.1528 6.42516 21.1094 6.54604C21.08 6.62845 21.0506 6.71086 21.0213 6.79328C20.9497 6.99451 20.8777 7.19562 20.8056 7.39668C20.4939 7.30163 20.2068 7.18614 19.9197 7.03212C19.8822 7.01204 19.8446 6.99195 19.8059 6.97126C18.3304 6.16317 17.3693 4.8663 16.898 3.27662C16.8658 3.1499 16.8658 3.1499 16.8658 3.04757C16.4437 3.03069 16.0215 3.0138 15.5866 2.99641C15.5529 3.09771 15.5191 3.19902 15.4843 3.3034C15.3951 3.52981 15.3004 3.75383 15.2061 3.97815C15.1684 4.06932 15.1684 4.06932 15.13 4.16233C15.1056 4.22047 15.0812 4.27861 15.056 4.33851C15.0339 4.39149 15.0117 4.44446 14.9889 4.49904C14.884 4.70847 14.884 4.70847 14.768 4.78721C14.6309 4.80383 14.6309 4.80383 14.4674 4.80041C14.3791 4.79932 14.3791 4.79932 14.2891 4.79821C14.1969 4.79593 14.1969 4.79593 14.1028 4.79361C13.9813 4.79139 13.8598 4.78939 13.7383 4.78761C13.6843 4.78637 13.6304 4.78512 13.5748 4.78384C13.4324 4.78065 13.4324 4.78065 13.2842 4.83838C14.0208 5.65104 15.036 6.02415 16.1141 6.08655C16.1734 6.09008 16.2327 6.09361 16.2939 6.09724C16.4169 6.10436 16.5401 6.11089 16.6632 6.11683C17.0828 6.14316 17.38 6.20362 17.7044 6.47609C18.135 6.96634 18.2446 7.4044 18.2195 8.04645C18.1975 8.33045 18.1036 8.5463 17.9403 8.77816C17.9118 8.82459 17.8833 8.87102 17.8539 8.91887C17.2837 9.47371 16.621 9.4109 15.8824 9.40274C15.4602 9.39586 15.073 9.35821 14.6656 9.23865C14.6272 9.22737 14.5887 9.21609 14.5491 9.20447C13.3204 8.83396 12.2765 8.20021 11.3589 7.31076C11.3001 7.25413 11.24 7.19882 11.1796 7.14385C10.6943 6.6901 10.3052 6.11786 9.95837 5.5547C9.8847 5.99632 9.81129 6.43799 9.73822 6.87971C9.70428 7.08483 9.67025 7.28994 9.63601 7.49501C9.60295 7.69304 9.57014 7.8911 9.53749 8.08919C9.525 8.16464 9.51244 8.24007 9.49978 8.31549C9.48203 8.42138 9.46459 8.52732 9.44722 8.63328C9.43722 8.6935 9.42722 8.75372 9.41692 8.81576C9.38813 9.04087 9.37454 9.22679 9.44672 9.44332C9.47653 9.45789 9.50634 9.47247 9.53706 9.48749C9.69333 9.56699 9.77992 9.67889 9.89442 9.81107C10.0381 9.97678 10.1805 10.1264 10.3474 10.2686C10.5882 10.4778 10.8152 10.6993 11.0417 10.9237C11.0849 10.9665 11.1281 11.0094 11.1726 11.0535C11.2634 11.1435 11.354 11.2336 11.4446 11.3237C11.5369 11.4155 11.6295 11.507 11.7223 11.5983C11.8573 11.7311 11.9916 11.8646 12.1257 11.9982C12.167 12.0386 12.2083 12.079 12.2509 12.1207C12.7232 12.5948 12.8416 13.0915 12.9948 13.7263C13.0157 13.8116 13.0367 13.8969 13.0578 13.9821C13.1138 14.2097 13.1691 14.4374 13.2244 14.6651C13.27 14.8534 13.316 15.0416 13.362 15.2298C13.4761 15.6965 13.5894 16.1633 13.7024 16.6302C13.7773 16.9398 13.8528 17.2492 13.9286 17.5585C13.9956 17.8317 14.0618 18.105 14.1275 18.3785C14.1534 18.4858 14.1795 18.5931 14.2058 18.7003C14.4145 19.552 14.5678 20.3469 14.0996 21.1475C13.7434 21.6683 13.2236 21.9837 12.619 22.1325C11.8538 22.2002 11.2743 22.0364 10.6797 21.5395C10.3049 21.1909 10.1136 20.8027 9.99068 20.3128C9.97977 20.2703 9.96887 20.2278 9.95763 20.184C9.84536 19.7436 9.73947 19.3017 9.6347 18.8595C9.6004 18.7149 9.5659 18.5703 9.53134 18.4257C9.4333 18.0156 9.33538 17.6055 9.23815 17.1952C9.17819 16.9421 9.1178 16.6892 9.05713 16.4364C9.03424 16.3407 9.01152 16.2449 8.98896 16.1491C8.95756 16.0159 8.92562 15.8827 8.89356 15.7496C8.87992 15.6909 8.87992 15.6909 8.866 15.6309C8.78979 15.3186 8.67566 15.1047 8.44658 14.8819C8.39434 14.8305 8.39434 14.8305 8.34105 14.7781C8.30491 14.743 8.26876 14.708 8.23152 14.6718C7.99161 14.438 7.76179 14.2014 7.54331 13.9474C7.37691 13.7598 7.19783 13.5849 7.01953 13.4087C6.9821 13.3715 6.94467 13.3343 6.90611 13.296C6.81505 13.2055 6.72388 13.1152 6.63259 13.0249C6.63399 13.0665 6.63538 13.1081 6.63682 13.1509C6.66272 14.2099 6.50636 15.0343 6.09387 16.0145C5.97718 16.2977 5.87661 16.5861 5.77556 16.8752C5.73392 16.9923 5.69221 17.1094 5.65044 17.2265C5.62807 17.2894 5.60569 17.3523 5.58264 17.4172C5.49477 17.6641 5.40673 17.911 5.31866 18.1579C5.3022 18.2041 5.28573 18.2503 5.26876 18.2978C5.18467 18.5336 5.10043 18.7693 5.0159 19.0049C4.98324 19.096 4.95058 19.1871 4.91793 19.2782C4.8943 19.3441 4.8943 19.3441 4.87019 19.4113C4.78274 19.6559 4.69717 19.9009 4.61373 20.1468C4.33682 20.957 4.01287 21.5284 3.22865 21.9454C2.70406 22.1898 2.08376 22.2254 1.53478 22.0319C0.934781 21.7696 0.434145 21.3466 0.187277 20.7294C-0.018542 20.0853 0.0581164 19.4752 0.294406 18.8547C0.317074 18.7921 0.339742 18.7296 0.363098 18.6652C0.412601 18.5287 0.46288 18.3926 0.513785 18.2567C0.598848 18.0295 0.682012 17.8016 0.765093 17.5737C0.99189 16.9529 1.22152 16.3331 1.45422 15.7145C1.51572 15.551 1.57702 15.3874 1.63832 15.2237C1.6811 15.1099 1.72423 14.9962 1.76739 14.8825C1.79367 14.8125 1.81993 14.7425 1.84617 14.6724C1.88033 14.5821 1.88033 14.5821 1.91518 14.4899C2.04403 14.0994 2.09414 13.7369 2.09513 13.3263C2.0959 13.2521 2.0959 13.2521 2.09669 13.1764C2.09826 13.0145 2.09914 12.8525 2.1 12.6906C2.10096 12.5776 2.10196 12.4647 2.10301 12.3518C2.10563 12.0558 2.10766 11.7598 2.10956 11.4638C2.11162 11.1613 2.11423 10.8588 2.11679 10.5563C2.12174 9.96357 2.12606 9.37087 2.12998 8.77816C2.08254 8.77836 2.08254 8.77836 2.03414 8.77857C1.99265 8.77867 1.95116 8.77878 1.90842 8.77888C1.84673 8.77908 1.84673 8.77908 1.78379 8.77929C1.29201 8.77442 0.89105 8.59344 0.530249 8.2625C0.15738 7.86754 -0.00657891 7.47888 0.000201659 6.93618C0.000630374 6.88798 0.00105909 6.83978 0.00150079 6.79012C0.0308353 5.8387 0.335861 4.92113 0.748504 4.07089C0.76388 4.039 0.779256 4.00711 0.795098 3.97426C1.28241 2.98058 2.10041 1.93056 3.1533 1.51259C3.62092 1.37339 4.15626 1.29607 4.63712 1.41026C4.88632 1.55245 5.03541 1.79642 5.19994 2.02425C5.86284 2.64852 6.82389 2.87396 7.70907 2.8587C8.56179 2.79226 9.32365 2.44438 9.95837 1.87076C9.98933 1.82984 9.98933 1.82984 10.0209 1.7881C10.1592 1.6804 10.2689 1.70867 10.4411 1.71986C11.1332 1.77417 11.1332 1.77417 11.7767 1.58812C11.9685 1.40508 12.1002 1.19038 12.2114 0.950817C12.2277 0.916701 12.244 0.882586 12.2608 0.847436C12.2872 0.781872 12.2872 0.781872 12.3142 0.714983C12.4143 0.591606 12.4143 0.591606 12.6002 0.560127C12.6797 0.559049 12.7593 0.559402 12.8388 0.560842C12.9045 0.560514 12.9045 0.560514 12.9715 0.560179C13.1188 0.559757 13.2661 0.561167 13.4134 0.562563C13.5188 0.562635 13.6242 0.562595 13.7295 0.56245C14.0161 0.562376 14.3027 0.563884 14.5893 0.565667C14.8886 0.567263 15.1879 0.567416 15.4872 0.56772C16.0542 0.568516 16.6212 0.570617 17.1882 0.573182C17.8336 0.576038 18.479 0.577447 19.1244 0.578732C20.4523 0.581408 21.7802 0.58591 23.108 0.591606C23.1058 0.543986 23.1035 0.496366 23.1012 0.447302C23.108 0.284611 23.108 0.284611 23.2168 0.137508C23.3639 0.0287808 23.3639 0.0287808 23.5174 0ZM21.7201 1.38468C21.651 1.38715 21.5818 1.38962 21.5127 1.39207C21.3452 1.39806 21.1777 1.40412 21.0102 1.41026C21.0102 1.51157 21.0102 1.61288 21.0102 1.71726C21.7363 1.71726 22.4623 1.71726 23.2104 1.71726C23.2104 1.61595 23.2104 1.51464 23.2104 1.41026C22.7436 1.27701 22.1986 1.36712 21.7201 1.38468Z" fill="#FF4427"/>
</svg>
