<svg width="12" height="21" viewBox="0 0 12 21" fill="none" xmlns="http://www.w3.org/2000/svg">
<path d="M8.14286 4.28571C9.32657 4.28571 10.2857 3.32657 10.2857 2.14286C10.2857 0.959143 9.32657 0 8.14286 0C6.95914 0 6 0.959143 6 2.14286C6 3.32657 6.95914 4.28571 8.14286 4.28571ZM4.28571 2.14286C4.28571 1.44514 4.48629 0.798857 4.812 0.234C4.52314 0.0891429 4.20257 0 3.85714 0C2.67343 0 1.71429 0.959143 1.71429 2.14286C1.71429 3.32657 2.67343 4.28571 3.85714 4.28571C4.20257 4.28571 4.524 4.19657 4.81286 4.05171C4.48629 3.48686 4.28571 2.84143 4.28571 2.14286ZM9.42857 5.14286H6.85714C5.43943 5.14286 4.28571 6.29657 4.28571 7.71429V14.5714H6V20.5714H7.71429V14.5714H8.57143V20.5714H10.2857V14.5714H12V7.71429C12 6.29657 10.8463 5.14286 9.42857 5.14286ZM0 7.71429V13.7143H0.857143V19.7143H2.57143V6.85714C2.59371 6.17571 3.03257 5.56029 3.45086 5.14286H2.57143C1.15371 5.14286 0 6.29657 0 7.71429Z" fill="white"/>
</svg>
