<svg width="23" height="25" viewBox="0 0 23 25" fill="none" xmlns="http://www.w3.org/2000/svg">
<g clip-path="url(#clip0_1074_117)">
<path d="M11.0833 1.00781C8.89126 1.00781 6.74841 1.65784 4.92577 2.87569C3.10312 4.09354 1.68254 5.82452 0.843673 7.84974C0.00480227 9.87495 -0.214685 12.1034 0.212968 14.2534C0.640621 16.4034 1.69621 18.3782 3.24624 19.9282C4.79627 21.4783 6.77113 22.5339 8.92109 22.9615C11.071 23.3892 13.2995 23.1697 15.3247 22.3308C17.35 21.4919 19.0809 20.0714 20.2988 18.2487C21.5166 16.4261 22.1667 14.2832 22.1667 12.0911C22.1635 9.15264 20.9948 6.3354 18.9169 4.25756C16.8391 2.17972 14.0218 1.01099 11.0833 1.00781ZM12.0069 21.2802V18.5564H10.1597V21.2802C8.04112 21.0644 6.06183 20.1243 4.556 18.6185C3.05018 17.1126 2.11005 15.1334 1.89433 13.0148H4.61806V11.1675H1.89433C2.11005 9.04893 3.05018 7.06964 4.556 5.56381C6.06183 4.05798 8.04112 3.11786 10.1597 2.90214V5.62587H12.0069V2.90214C14.1256 3.11786 16.1048 4.05798 17.6107 5.56381C19.1165 7.06964 20.0566 9.04893 20.2723 11.1675H17.5486V13.0148H20.2723C20.0566 15.1334 19.1165 17.1126 17.6107 18.6185C16.1048 20.1243 14.1256 21.0644 12.0069 21.2802ZM12.0069 11.1675H13.8542V13.0148H12.0069V14.862H10.1597V13.0148H8.3125V11.1675H10.1597V9.32031H12.0069V11.1675Z" fill="#FF0000"/>
<path d="M11.0833 1.00781C8.89126 1.00781 6.74841 1.65784 4.92577 2.87569C3.10312 4.09354 1.68254 5.82452 0.843673 7.84974C0.00480227 9.87495 -0.214685 12.1034 0.212968 14.2534C0.640621 16.4034 1.69621 18.3782 3.24624 19.9282C4.79627 21.4783 6.77113 22.5339 8.92109 22.9615C11.071 23.3892 13.2995 23.1697 15.3247 22.3308C17.35 21.4919 19.0809 20.0714 20.2988 18.2487C21.5166 16.4261 22.1667 14.2832 22.1667 12.0911C22.1635 9.15264 20.9948 6.3354 18.9169 4.25756C16.8391 2.17972 14.0218 1.01099 11.0833 1.00781ZM12.0069 21.2802V18.5564H10.1597V21.2802C8.04112 21.0644 6.06183 20.1243 4.556 18.6185C3.05018 17.1126 2.11005 15.1334 1.89433 13.0148H4.61806V11.1675H1.89433C2.11005 9.04893 3.05018 7.06964 4.556 5.56381C6.06183 4.05798 8.04112 3.11786 10.1597 2.90214V5.62587H12.0069V2.90214C14.1256 3.11786 16.1048 4.05798 17.6107 5.56381C19.1165 7.06964 20.0566 9.04893 20.2723 11.1675H17.5486V13.0148H20.2723C20.0566 15.1334 19.1165 17.1126 17.6107 18.6185C16.1048 20.1243 14.1256 21.0644 12.0069 21.2802ZM12.0069 11.1675H13.8542V13.0148H12.0069V14.862H10.1597V13.0148H8.3125V11.1675H10.1597V9.32031H12.0069V11.1675Z" fill="#62FF00"/>
<path d="M12.0069 11.1968H13.8542V13.0441H12.0069V14.8913H10.1597V13.0441H8.3125V11.1968H10.1597V9.34961H12.0069V11.1968Z" fill="#FF0000"/>
</g>
<defs>
<clipPath id="clip0_1074_117">
<rect width="22.1667" height="24.1818" fill="white"/>
</clipPath>
</defs>
</svg>
