<svg width="20" height="20" viewBox="0 0 20 20" fill="none" xmlns="http://www.w3.org/2000/svg">
<path d="M8.84583 3.93917C8.565 4.08 8.2525 4.16667 7.91667 4.16667C6.76583 4.16667 5.83333 3.23417 5.83333 2.08333C5.83333 0.9325 6.76583 0 7.91667 0C8.25167 0 8.56417 0.0866667 8.845 0.2275C8.52833 0.776667 8.33333 1.405 8.33333 2.08333C8.33333 2.76167 8.52833 3.39 8.84583 3.93917ZM16.25 4.16667C17.4008 4.16667 18.3333 3.23417 18.3333 2.08333C18.3333 0.9325 17.4008 0 16.25 0C15.0992 0 14.1667 0.9325 14.1667 2.08333C14.1667 3.23417 15.0992 4.16667 16.25 4.16667ZM12.5 2.08333C12.5 1.405 12.695 0.776667 13.0117 0.2275C12.7308 0.0866667 12.4192 0 12.0833 0C10.9325 0 10 0.9325 10 2.08333C10 3.23417 10.9325 4.16667 12.0833 4.16667C12.4192 4.16667 12.7317 4.08 13.0125 3.93917C12.695 3.39 12.5 2.7625 12.5 2.08333ZM4.16667 2.08333C4.16667 1.405 4.36167 0.776667 4.67833 0.2275C4.3975 0.0866667 4.08583 0 3.75 0C2.59917 0 1.66667 0.9325 1.66667 2.08333C1.66667 3.23417 2.59917 4.16667 3.75 4.16667C4.08583 4.16667 4.39833 4.08 4.67917 3.93917C4.36167 3.39 4.16667 2.7625 4.16667 2.08333ZM17.5 5H15C13.6217 5 12.5 6.12167 12.5 7.5V14.1667H14.1667V20H15.8333V14.1667H16.6667V20H18.3333V14.1667H20V7.5C20 6.12167 18.8783 5 17.5 5ZM8.33333 7.5V13.3333H9.16667V19.1667H10.8333V6.66667C10.855 6.00417 11.2817 5.40583 11.6883 5H10.8333C9.455 5 8.33333 6.12167 8.33333 7.5ZM0 7.5V11.6667H0.833333V15.8333H2.5V6.66667C2.52167 6.00417 2.90583 5.40583 3.355 5H2.5C1.12167 5 0 6.12167 0 7.5ZM4.16667 7.5V12.5H5V17.5H6.66667V6.66667C6.68833 6.06833 7.09417 5.40583 7.52167 5H6.66667C5.28833 5 4.16667 6.12167 4.16667 7.5Z" fill="white"/>
</svg>
